<svg width="248" height="35" viewBox="0 0 248 35" fill="none" xmlns="http://www.w3.org/2000/svg">
<path fill-rule="evenodd" clip-rule="evenodd" d="M50.7809 13.0495V26.9395H57.1538V13.0495H62.6896V8.13287H45.2451V13.0495H50.7809ZM73.3101 22.1572H82.7614V26.9395H67.0452V8.13287H82.4103V12.9151H73.3101V15.1182H81.3032V19.6855H73.3101V22.1572ZM104.792 26.9395H110.598L110.544 8.13287H105.306L99.3107 18.1541L93.1539 8.13287H87.9151V26.9395H93.7209V18.6646L97.8255 25.2469H100.634L104.738 18.369L104.792 26.9395ZM139.063 26.9395H133.257L133.203 18.369L129.099 25.2469H126.29L122.186 18.6646V26.9395H116.38V8.13287H121.619L127.775 18.1541L133.77 8.13287H139.009L139.063 26.9395ZM157.726 23.6617L158.995 26.9395H165.584L157.32 8.13287H151.056L142.792 26.9395H149.273L150.543 23.6617H157.726ZM154.134 14.3659L155.97 19.0944H152.298L154.134 14.3659ZM171.556 26.9395V13.0495H166.02V8.13287H183.465V13.0495H177.929V26.9395H171.556ZM206.453 8.13287H200.08V14.7958H194.193V8.13287H187.82V26.9395H194.193V20.0079H200.08V26.9395H206.453V8.13287ZM218.489 22.1572H227.94V26.9395H212.224V8.13287H227.589V12.9151H218.489V15.1182H226.482V19.6855H218.489V22.1572ZM233.094 26.9395V8.13287H239.467V22.0229H248V26.9395H233.094Z" fill="#3A4347"/>
<path fill-rule="evenodd" clip-rule="evenodd" d="M17.5629 5.79819C14.9251 5.79819 12.4977 6.65871 10.5374 8.11407C9.24761 9.07164 7.42181 8.80764 6.45934 7.52442C5.49688 6.24119 5.76223 4.42467 7.05201 3.4671C9.98446 1.28996 13.6265 0 17.5629 0C27.2773 0 35.1523 7.83502 35.1523 17.5C35.1523 27.165 27.2773 35 17.5629 35C15.9536 35 14.649 33.702 14.649 32.1009C14.649 30.4998 15.9536 29.2018 17.5629 29.2018C24.0587 29.2018 29.3245 23.9627 29.3245 17.5C29.3245 11.0373 24.0587 5.79819 17.5629 5.79819Z" fill="url(#paint0_angular_1645_662)"/>
<path fill-rule="evenodd" clip-rule="evenodd" d="M7.0785 3.46714C9.61928 1.58079 12.6927 0.360454 16.0288 0.0681152C14.3217 0.398816 13.0331 1.89457 13.0331 3.68977C13.0331 4.59948 13.364 5.4323 13.9126 6.07558L22.9229 15.04C24.2884 16.3987 24.2884 18.6014 22.9229 19.96L11.6116 31.2137C10.2524 32.5661 8.05252 32.5723 6.68552 31.2325C2.61816 28.0318 0 23.0697 0 17.5C0 15.5733 0.314033 13.7138 0.896207 11.9727C1.4042 10.4534 3.05391 9.63152 4.58094 10.1369C6.10796 10.6423 6.93405 12.2837 6.42606 13.8029C6.03874 14.9613 5.82782 16.2032 5.82782 17.5C5.82782 20.2023 6.74696 22.6906 8.29551 24.6731L15.5053 17.5L6.69303 8.73257C5.34169 7.38809 5.32764 5.21696 6.65087 3.85529C6.77778 3.71472 6.92045 3.58448 7.0785 3.46714Z" fill="url(#paint1_angular_1645_662)"/>
<defs>
<radialGradient id="paint0_angular_1645_662" cx="0" cy="0" r="1" gradientUnits="userSpaceOnUse" gradientTransform="translate(18.543 17.5) rotate(110.56) scale(19.3098 18.3484)">
<stop stop-color="#0DCB40"/>
<stop offset="0.325" stop-color="#004F15"/>
<stop offset="1" stop-color="#0DCB40"/>
</radialGradient>
<radialGradient id="paint1_angular_1645_662" cx="0" cy="0" r="1" gradientUnits="userSpaceOnUse" gradientTransform="translate(12.5828 18.3961) rotate(-132.887) scale(18.4889 19.4693)">
<stop stop-color="#0DCB40"/>
<stop offset="1" stop-color="#00C6CD"/>
</radialGradient>
</defs>
</svg>
