<svg width="280" height="40" viewBox="0 0 280 40" fill="none" xmlns="http://www.w3.org/2000/svg">
    <path fill-rule="evenodd" clip-rule="evenodd" d="M57.3331 14.9139V30.7882H64.5283V14.9139H70.7784V9.29492H51.083V14.9139H57.3331ZM82.7692 25.3227H93.4401V30.7882H75.696V9.29492H93.0437V14.7603H82.7692V17.2781H91.7937V22.4979H82.7692V25.3227ZM118.314 30.7882H124.869L124.808 9.29492H118.893L112.125 20.7477L105.174 9.29492H99.2588V30.7882H105.814V21.3311L110.448 28.8538H113.619L118.253 20.9934L118.314 30.7882ZM157.007 30.7882H150.452L150.391 20.9934L145.756 28.8538H142.586L137.951 21.3311V30.7882H131.396V9.29492H137.311L144.262 20.7477L151.031 9.29492H156.946L157.007 30.7882ZM178.077 27.0422L179.51 30.7882H186.949L177.62 9.29492H170.546L161.217 30.7882H168.534L169.967 27.0422H178.077ZM174.022 16.4184L176.095 21.8224H171.949L174.022 16.4184ZM193.692 30.7882V14.9139H187.442V9.29492H207.137V14.9139H200.887V30.7882H193.692ZM233.092 9.29492H225.897V16.9097H219.25V9.29492H212.055V30.7882H219.25V22.8664H225.897V30.7882H233.092V9.29492ZM246.681 25.3227H257.352V30.7882H239.608V9.29492H256.955V14.7603H246.681V17.2781H255.705V22.4979H246.681V25.3227ZM263.17 30.7882V9.29492H270.366V25.1692H280V30.7882H263.17Z" fill="#1E293B"/>
    <path fill-rule="evenodd" clip-rule="evenodd" d="M19.8293 6.62651C16.8511 6.62651 14.1105 7.60995 11.8973 9.27322C10.4411 10.3676 8.3797 10.0659 7.29305 8.59933C6.2064 7.13279 6.50598 5.05677 7.96219 3.9624C11.273 1.47424 15.385 0 19.8293 0C30.7972 0 39.6883 8.9543 39.6883 20C39.6883 31.0457 30.7972 40 19.8293 40C18.0124 40 16.5394 38.5166 16.5394 36.6867C16.5394 34.8569 18.0124 33.3735 19.8293 33.3735C27.1632 33.3735 33.1086 27.386 33.1086 20C33.1086 12.614 27.1632 6.62651 19.8293 6.62651Z" fill="url(#paint0_angular_932_579)"/>
    <path fill-rule="evenodd" clip-rule="evenodd" d="M7.99186 3.96272C10.8605 1.80689 14.3305 0.412227 18.0971 0.078125C16.1697 0.456069 14.7148 2.16551 14.7148 4.21716C14.7148 5.25682 15.0884 6.20861 15.7078 6.94378L25.8807 17.1889C27.4224 18.7416 27.4224 21.259 25.8807 22.8117L13.1099 35.6731C11.5753 37.2186 9.09157 37.2258 7.54818 35.6946C2.95599 32.0366 0 26.3657 0 20.0003C0 17.7984 0.354554 15.6732 1.01185 13.6833C1.58539 11.947 3.44797 11.0077 5.17203 11.5853C6.89609 12.163 7.82877 14.0388 7.25523 15.7751C6.81793 17.0989 6.57979 18.5182 6.57979 20.0003C6.57979 23.0886 7.61754 25.9324 9.36589 28.1981L17.5059 20.0003L7.55665 9.98036C6.03094 8.44382 6.01507 5.96253 7.50904 4.40634C7.65233 4.24568 7.81341 4.09683 7.99186 3.96272Z" fill="url(#paint1_angular_932_579)"/>
    <defs>
    <radialGradient id="paint0_angular_932_579" cx="0" cy="0" r="1" gradientUnits="userSpaceOnUse" gradientTransform="translate(20.9359 20) rotate(110.332) scale(22.0356 20.7467)">
    <stop stop-color="#0DCB40"/>
    <stop offset="0.325" stop-color="#004F15"/>
    <stop offset="1" stop-color="#0DCB40"/>
    </radialGradient>
    <radialGradient id="paint1_angular_932_579" cx="0" cy="0" r="1" gradientUnits="userSpaceOnUse" gradientTransform="translate(14.2064 21.0244) rotate(-132.54) scale(21.0122 22.1049)">
    <stop stop-color="#0DCB40"/>
    <stop offset="1" stop-color="#00C6CD"/>
    </radialGradient>
    </defs>
</svg>    